<?xml version="1.0" standalone="no"?>
<!DOCTYPE svg PUBLIC "-//W3C//DTD SVG 20010904//EN"
 "http://www.w3.org/TR/2001/REC-SVG-20010904/DTD/svg10.dtd">
<svg version="1.0" xmlns="http://www.w3.org/2000/svg"
 width="260.000000pt" height="260.000000pt" viewBox="0 0 260.000000 260.000000"
 preserveAspectRatio="xMidYMid meet">
<metadata>
Created by potrace 1.11, written by Peter Selinger 2001-2013
</metadata>
<g transform="translate(0.000000,260.000000) scale(0.100000,-0.100000)"
fill="#000000" stroke="none">
<path d="M330 1300 l0 -1300 965 0 965 0 0 1300 0 1300 -965 0 -965 0 0 -1300z
m509 875 c11 -11 13 -143 13 -751 0 -808 -1 -802 60 -741 23 24 259 273 338
357 23 25 102 108 175 185 73 77 148 156 166 177 19 20 41 37 49 39 25 5 60
-12 61 -29 3 -41 -7 -57 -79 -133 -42 -45 -114 -120 -159 -167 -46 -48 -83
-94 -83 -102 0 -8 113 -127 250 -265 170 -171 250 -258 250 -272 0 -35 -30
-59 -70 -53 -8 1 -129 115 -268 253 l-253 252 -106 -110 c-58 -60 -166 -174
-241 -252 -142 -151 -167 -166 -196 -120 -13 19 -15 145 -15 874 l1 853 21 15
c22 16 63 11 86 -10z"/>
</g>
</svg>
